<?xml version="1.0" encoding="utf-8"?>
<!-- Generator: Adobe Illustrator 27.8.1, SVG Export Plug-In . SVG Version: 6.00 Build 0)  -->
<svg version="1.1" id="Layer_1" xmlns="http://www.w3.org/2000/svg" xmlns:xlink="http://www.w3.org/1999/xlink" x="0px" y="0px"
	 viewBox="0 0 1893.7 1090.1" style="enable-background:new 0 0 1893.7 1090.1;" xml:space="preserve">
<style type="text/css">
	.st0{fill:#FFFFFF;}
</style>
<path d="M1436.5,577c-262.4,0-400,193.3-400,224c0,30.6,137.6,224,400,224c262.4,0,400-193.4,400-224
	C1836.5,770.3,1698.9,577,1436.5,577z M1436.5,973.3c-98.2,0-177.8-77.1-177.8-172.3s79.6-172.4,177.8-172.4
	c98.2,0,177.8,77.2,177.8,172.4S1534.7,973.3,1436.5,973.3L1436.5,973.3z M1436.5,801c-17.9,16.3-86.2-26.5-86.2,0
	c0,49.1,38.6,88.9,86.2,88.9c47.6,0,86.2-39.8,86.2-88.9c0-49.1-38.6-88.9-86.2-88.9C1414.7,712.1,1451.7,787.2,1436.5,801z"/>
<path d="M1412.5,65c-262.4,0-400,193.3-400,224c0,30.6,137.6,224,400,224c262.4,0,400-193.4,400-224
	C1812.5,258.3,1674.9,65,1412.5,65z M1412.5,458.2c-252.4,0-336.7-166.1-336.7-166.1l0,0c217.3,80.9,456.4,81.5,674,1.5l4.1-1.5
	C1753.9,292.1,1664.8,458.2,1412.5,458.2z"/>
<rect width="916.6" height="1090.1"/>
<path class="st0" d="M470.4,577c-262.4,0-400,193.3-400,224c0,30.6,137.6,224,400,224c262.4,0,400-193.4,400-224
	C870.4,770.3,732.8,577,470.4,577z M470.4,973.3c-98.2,0-177.8-77.1-177.8-172.3s79.6-172.4,177.8-172.4S648.1,705.9,648.1,801
	S568.6,973.3,470.4,973.3L470.4,973.3z M470.4,801c-17.9,16.3-86.2-26.5-86.2,0c0,49.1,38.6,88.9,86.2,88.9s86.2-39.8,86.2-88.9
	c0-49.1-38.6-88.9-86.2-88.9C448.5,712.1,485.5,787.2,470.4,801z"/>
<path class="st0" d="M446.3,65c-262.4,0-400,193.3-400,224c0,30.6,137.6,224,400,224c262.4,0,400-193.4,400-224
	C846.3,258.3,708.7,65,446.3,65z M446.3,458.2c-252.4,0-336.7-166.1-336.7-166.1l0,0c217.3,80.9,456.4,81.5,674,1.5l4.1-1.5
	C787.7,292.1,698.6,458.2,446.3,458.2z"/>
</svg>
